<svg width="225" height="59" viewBox="0 0 225 59" fill="none" xmlns="http://www.w3.org/2000/svg">
<path d="M17.5319 32L16.4519 28.364H8.06393L6.98393 32H-6.83721e-05L8.31593 6.8H16.1639L24.4799 32H17.5319ZM9.71993 22.82H14.7959L12.2399 14.252L9.71993 22.82ZM34.7489 32.54C32.0849 32.54 29.8769 31.976 28.1249 30.848C26.3729 29.72 25.1489 28.196 24.4529 26.276L29.9609 23.072C30.8969 25.304 32.5529 26.42 34.9289 26.42C36.8969 26.42 37.8809 25.856 37.8809 24.728C37.8809 23.984 37.3169 23.384 36.1889 22.928C35.7089 22.736 34.6529 22.412 33.0209 21.956C30.7169 21.284 28.8929 20.348 27.5489 19.148C26.2049 17.924 25.5329 16.232 25.5329 14.072C25.5329 11.744 26.3609 9.86 28.0169 8.42C29.6969 6.98 31.7849 6.26 34.2809 6.26C36.3929 6.26 38.2649 6.752 39.8969 7.736C41.5289 8.72 42.7769 10.148 43.6409 12.02L38.2409 15.188C37.4489 13.316 36.1409 12.38 34.3169 12.38C33.5489 12.38 32.9609 12.536 32.5529 12.848C32.1689 13.16 31.9769 13.556 31.9769 14.036C31.9769 14.588 32.2649 15.056 32.8409 15.44C33.4409 15.824 34.5929 16.268 36.2969 16.772C37.5209 17.132 38.5049 17.468 39.2489 17.78C39.9929 18.092 40.8089 18.548 41.6969 19.148C42.5849 19.724 43.2449 20.48 43.6769 21.416C44.1089 22.328 44.3249 23.408 44.3249 24.656C44.3249 27.128 43.4489 29.06 41.6969 30.452C39.9449 31.844 37.6289 32.54 34.7489 32.54ZM63.4204 6.8V13.028H57.1924V32H50.7484V13.028H44.5204V6.8H63.4204ZM78.8976 32L74.5056 23.864H72.2016V32H65.7576V6.8H75.8376C78.4056 6.8 80.5536 7.628 82.2816 9.284C84.0336 10.916 84.9096 12.992 84.9096 15.512C84.9096 17.024 84.5256 18.416 83.7576 19.688C82.9896 20.936 81.9456 21.932 80.6256 22.676L85.8096 32H78.8976ZM72.2016 12.74V18.392H75.7656C76.5576 18.416 77.2056 18.164 77.7096 17.636C78.2136 17.108 78.4656 16.424 78.4656 15.584C78.4656 14.744 78.2136 14.06 77.7096 13.532C77.2056 13.004 76.5576 12.74 75.7656 12.74H72.2016ZM109.33 28.76C106.786 31.28 103.666 32.54 99.9702 32.54C96.2742 32.54 93.1422 31.28 90.5742 28.76C88.0302 26.216 86.7582 23.096 86.7582 19.4C86.7582 15.704 88.0302 12.596 90.5742 10.076C93.1422 7.532 96.2742 6.26 99.9702 6.26C103.666 6.26 106.786 7.532 109.33 10.076C111.898 12.596 113.182 15.704 113.182 19.4C113.182 23.096 111.898 26.216 109.33 28.76ZM95.1102 24.332C96.4062 25.604 98.0262 26.24 99.9702 26.24C101.914 26.24 103.534 25.604 104.83 24.332C106.126 23.036 106.774 21.392 106.774 19.4C106.774 17.408 106.126 15.776 104.83 14.504C103.534 13.208 101.914 12.56 99.9702 12.56C98.0262 12.56 96.4062 13.208 95.1102 14.504C93.8142 15.776 93.1662 17.408 93.1662 19.4C93.1662 21.392 93.8142 23.036 95.1102 24.332ZM124.151 32.54C121.487 32.54 119.279 31.976 117.527 30.848C115.775 29.72 114.551 28.196 113.855 26.276L119.363 23.072C120.299 25.304 121.955 26.42 124.331 26.42C126.299 26.42 127.283 25.856 127.283 24.728C127.283 23.984 126.719 23.384 125.591 22.928C125.111 22.736 124.055 22.412 122.423 21.956C120.119 21.284 118.295 20.348 116.951 19.148C115.607 17.924 114.935 16.232 114.935 14.072C114.935 11.744 115.763 9.86 117.419 8.42C119.099 6.98 121.187 6.26 123.683 6.26C125.795 6.26 127.667 6.752 129.299 7.736C130.931 8.72 132.179 10.148 133.043 12.02L127.643 15.188C126.851 13.316 125.543 12.38 123.719 12.38C122.951 12.38 122.363 12.536 121.955 12.848C121.571 13.16 121.379 13.556 121.379 14.036C121.379 14.588 121.667 15.056 122.243 15.44C122.843 15.824 123.995 16.268 125.699 16.772C126.923 17.132 127.907 17.468 128.651 17.78C129.395 18.092 130.211 18.548 131.099 19.148C131.987 19.724 132.647 20.48 133.079 21.416C133.511 22.328 133.727 23.408 133.727 24.656C133.727 27.128 132.851 29.06 131.099 30.452C129.347 31.844 127.031 32.54 124.151 32.54ZM149.606 6.8H156.014V32H149.606V22.316H142.514V32H136.07V6.8H142.514V16.124H149.606V6.8ZM175.383 32L174.303 28.364H165.915L164.835 32H157.851L166.167 6.8H174.015L182.331 32H175.383ZM167.571 22.82H172.647L170.091 14.252L167.571 22.82ZM197.304 32L192.912 23.864H190.608V32H184.164V6.8H194.244C196.812 6.8 198.96 7.628 200.688 9.284C202.44 10.916 203.316 12.992 203.316 15.512C203.316 17.024 202.932 18.416 202.164 19.688C201.396 20.936 200.352 21.932 199.032 22.676L204.216 32H197.304ZM190.608 12.74V18.392H194.172C194.964 18.416 195.612 18.164 196.116 17.636C196.62 17.108 196.872 16.424 196.872 15.584C196.872 14.744 196.62 14.06 196.116 13.532C195.612 13.004 194.964 12.74 194.172 12.74H190.608ZM212.932 25.952H222.688V32H206.488V6.8H222.508V12.812H212.932V16.304H221.608V22.244H212.932V25.952Z" fill="white"/>
<path d="M9.39493 50V39.5H10.9849V48.575H16.1599V50H9.39493ZM20.3841 43.925L21.3291 39.5H23.4441L21.8091 43.925H20.3841ZM29.9932 50.18C29.4032 50.18 28.9082 50.08 28.5082 49.88C28.1082 49.67 27.8082 49.395 27.6082 49.055C27.4082 48.705 27.3082 48.325 27.3082 47.915C27.3082 47.185 27.5732 46.615 28.1032 46.205C28.6432 45.795 29.4032 45.59 30.3832 45.59H32.3032V45.425C32.3032 44.305 31.7832 43.745 30.7432 43.745C30.3132 43.745 29.9482 43.84 29.6482 44.03C29.3582 44.21 29.1632 44.505 29.0632 44.915H27.4732C27.5532 44.135 27.8882 43.52 28.4782 43.07C29.0782 42.61 29.8332 42.38 30.7432 42.38C31.8432 42.38 32.6432 42.65 33.1432 43.19C33.6432 43.73 33.8932 44.475 33.8932 45.425V50H32.5432L32.4082 48.905H32.3032C32.0832 49.255 31.8082 49.555 31.4782 49.805C31.1482 50.055 30.6532 50.18 29.9932 50.18ZM30.2932 48.845C30.9432 48.845 31.4282 48.65 31.7482 48.26C32.0782 47.86 32.2582 47.355 32.2882 46.745H30.5482C29.9782 46.745 29.5732 46.84 29.3332 47.03C29.1032 47.21 28.9882 47.465 28.9882 47.795C28.9882 48.125 29.1032 48.385 29.3332 48.575C29.5732 48.755 29.8932 48.845 30.2932 48.845ZM39.7224 50.18C38.7424 50.18 37.9624 49.95 37.3824 49.49C36.8024 49.03 36.4724 48.42 36.3924 47.66H38.0274C38.0874 48.01 38.2624 48.295 38.5524 48.515C38.8524 48.735 39.2474 48.845 39.7374 48.845C40.2074 48.845 40.5674 48.75 40.8174 48.56C41.0774 48.36 41.2074 48.13 41.2074 47.87C41.2074 47.49 41.0524 47.23 40.7424 47.09C40.4424 46.95 39.9974 46.845 39.4074 46.775C38.8974 46.715 38.4324 46.6 38.0124 46.43C37.6024 46.25 37.2774 46.01 37.0374 45.71C36.7974 45.4 36.6774 45.015 36.6774 44.555C36.6774 43.905 36.9324 43.38 37.4424 42.98C37.9524 42.58 38.6624 42.38 39.5724 42.38C40.4824 42.38 41.1874 42.585 41.6874 42.995C42.1874 43.405 42.4774 43.965 42.5574 44.675H41.0274C40.9874 44.375 40.8324 44.14 40.5624 43.97C40.2924 43.79 39.9574 43.7 39.5574 43.7C39.1474 43.7 38.8224 43.78 38.5824 43.94C38.3424 44.09 38.2224 44.29 38.2224 44.54C38.2224 45.08 38.8024 45.41 39.9624 45.53C40.5124 45.59 41.0024 45.695 41.4324 45.845C41.8624 45.985 42.2024 46.21 42.4524 46.52C42.7024 46.82 42.8274 47.245 42.8274 47.795C42.8374 48.245 42.7074 48.65 42.4374 49.01C42.1774 49.37 41.8124 49.655 41.3424 49.865C40.8824 50.075 40.3424 50.18 39.7224 50.18ZM49.4665 50C48.7365 50 48.1565 49.825 47.7265 49.475C47.2965 49.115 47.0815 48.48 47.0815 47.57V43.91H45.2065V42.56H46.3165C46.8265 42.56 47.1265 42.31 47.2165 41.81L47.4415 40.61H48.6715V42.56H51.6115V43.91H48.6715V47.54C48.6715 47.93 48.7565 48.205 48.9265 48.365C49.1065 48.515 49.4115 48.59 49.8415 48.59H51.5815V50H49.4665ZM54.3056 50V48.62H56.1206V44.435C56.1206 44.105 55.9606 43.94 55.6406 43.94H54.4556V42.56H56.2406C56.6506 42.56 56.9856 42.68 57.2456 42.92C57.5056 43.15 57.6356 43.475 57.6356 43.895V44.075H57.7106C57.8206 43.515 58.0556 43.095 58.4156 42.815C58.7856 42.525 59.3206 42.38 60.0206 42.38H61.1756V44.06H59.5556C58.9656 44.06 58.5106 44.265 58.1906 44.675C57.8706 45.085 57.7106 45.575 57.7106 46.145V48.62H60.0206V50H54.3056ZM66.6448 50.18C65.9348 50.18 65.2998 50.02 64.7398 49.7C64.1798 49.38 63.7398 48.93 63.4198 48.35C63.0998 47.76 62.9398 47.07 62.9398 46.28C62.9398 45.49 63.0998 44.805 63.4198 44.225C63.7398 43.635 64.1798 43.18 64.7398 42.86C65.2998 42.54 65.9398 42.38 66.6598 42.38C67.3798 42.38 68.0148 42.54 68.5648 42.86C69.1248 43.18 69.5598 43.635 69.8698 44.225C70.1898 44.805 70.3498 45.49 70.3498 46.28C70.3498 47.07 70.1898 47.76 69.8698 48.35C69.5498 48.93 69.1098 49.38 68.5498 49.7C67.9998 50.02 67.3648 50.18 66.6448 50.18ZM66.6448 48.665C67.0248 48.665 67.3748 48.58 67.6948 48.41C68.0148 48.24 68.2698 47.98 68.4598 47.63C68.6598 47.27 68.7598 46.82 68.7598 46.28C68.7598 45.73 68.6598 45.28 68.4598 44.93C68.2698 44.58 68.0148 44.32 67.6948 44.15C67.3848 43.98 67.0398 43.895 66.6598 43.895C66.2798 43.895 65.9298 43.98 65.6098 44.15C65.2898 44.32 65.0298 44.58 64.8298 44.93C64.6398 45.28 64.5448 45.73 64.5448 46.28C64.5448 47.1 64.7498 47.705 65.1598 48.095C65.5798 48.475 66.0748 48.665 66.6448 48.665ZM72.3089 50V42.56H73.6889L73.8239 43.67H73.8989C74.0989 43.31 74.4089 43.005 74.8289 42.755C75.2489 42.505 75.7339 42.38 76.2839 42.38C77.1939 42.38 77.8789 42.655 78.3389 43.205C78.7989 43.755 79.0289 44.565 79.0289 45.635V50H77.4389V45.83C77.4389 45.21 77.3089 44.73 77.0489 44.39C76.7889 44.05 76.3789 43.88 75.8189 43.88C75.2689 43.88 74.8089 44.065 74.4389 44.435C74.0789 44.805 73.8989 45.34 73.8989 46.04V50H72.3089ZM84.6331 50.18C83.9231 50.18 83.2881 50.02 82.7281 49.7C82.1681 49.38 81.7281 48.93 81.4081 48.35C81.0881 47.76 80.9281 47.07 80.9281 46.28C80.9281 45.49 81.0881 44.805 81.4081 44.225C81.7281 43.635 82.1681 43.18 82.7281 42.86C83.2881 42.54 83.9281 42.38 84.6481 42.38C85.3681 42.38 86.0031 42.54 86.5531 42.86C87.1131 43.18 87.5481 43.635 87.8581 44.225C88.1781 44.805 88.3381 45.49 88.3381 46.28C88.3381 47.07 88.1781 47.76 87.8581 48.35C87.5381 48.93 87.0981 49.38 86.5381 49.7C85.9881 50.02 85.3531 50.18 84.6331 50.18ZM84.6331 48.665C85.0131 48.665 85.3631 48.58 85.6831 48.41C86.0031 48.24 86.2581 47.98 86.4481 47.63C86.6481 47.27 86.7481 46.82 86.7481 46.28C86.7481 45.73 86.6481 45.28 86.4481 44.93C86.2581 44.58 86.0031 44.32 85.6831 44.15C85.3731 43.98 85.0281 43.895 84.6481 43.895C84.2681 43.895 83.9181 43.98 83.5981 44.15C83.2781 44.32 83.0181 44.58 82.8181 44.93C82.6281 45.28 82.5331 45.73 82.5331 46.28C82.5331 47.1 82.7381 47.705 83.1481 48.095C83.5681 48.475 84.0631 48.665 84.6331 48.665ZM89.5022 50V42.56H90.8222L90.9572 43.43H91.0322C91.1622 43.12 91.3622 42.87 91.6322 42.68C91.9022 42.48 92.2222 42.38 92.5922 42.38C92.9522 42.38 93.2672 42.47 93.5372 42.65C93.8072 42.83 94.0072 43.09 94.1372 43.43H94.1972C94.3272 43.13 94.5322 42.88 94.8122 42.68C95.0922 42.48 95.4372 42.38 95.8472 42.38C96.3972 42.38 96.8122 42.56 97.0922 42.92C97.3822 43.28 97.5272 43.785 97.5272 44.435V50H95.9972V44.75C95.9972 44.45 95.9322 44.215 95.8022 44.045C95.6822 43.865 95.4872 43.775 95.2172 43.775C94.9472 43.775 94.7222 43.88 94.5422 44.09C94.3722 44.3 94.2872 44.595 94.2872 44.975V50H92.7422V44.75C92.7422 44.45 92.6822 44.215 92.5622 44.045C92.4422 43.865 92.2472 43.775 91.9772 43.775C91.7072 43.775 91.4822 43.88 91.3022 44.09C91.1222 44.3 91.0322 44.595 91.0322 44.975V50H89.5022ZM102.471 41.42C102.121 41.42 101.826 41.31 101.586 41.09C101.356 40.86 101.241 40.58 101.241 40.25C101.241 39.92 101.356 39.645 101.586 39.425C101.826 39.205 102.121 39.095 102.471 39.095C102.831 39.095 103.126 39.205 103.356 39.425C103.596 39.645 103.716 39.92 103.716 40.25C103.716 40.58 103.596 40.86 103.356 41.09C103.126 41.31 102.831 41.42 102.471 41.42ZM99.4863 50V48.62H101.826V44.435C101.826 44.105 101.666 43.94 101.346 43.94H99.6963V42.56H101.631C102.251 42.56 102.701 42.705 102.981 42.995C103.271 43.275 103.416 43.725 103.416 44.345V48.62H105.756V50H99.4863ZM111.705 50.18C110.985 50.18 110.35 50.02 109.8 49.7C109.25 49.37 108.82 48.915 108.51 48.335C108.2 47.755 108.045 47.08 108.045 46.31C108.045 45.53 108.195 44.845 108.495 44.255C108.805 43.665 109.235 43.205 109.785 42.875C110.345 42.545 110.99 42.38 111.72 42.38C112.44 42.38 113.06 42.545 113.58 42.875C114.1 43.195 114.5 43.625 114.78 44.165C115.07 44.705 115.215 45.3 115.215 45.95C115.215 46.05 115.215 46.16 115.215 46.28C115.215 46.39 115.21 46.515 115.2 46.655H109.605C109.655 47.345 109.88 47.87 110.28 48.23C110.68 48.58 111.15 48.755 111.69 48.755C112.16 48.755 112.53 48.66 112.8 48.47C113.08 48.27 113.285 48 113.415 47.66H115.02C114.84 48.37 114.465 48.97 113.895 49.46C113.325 49.94 112.595 50.18 111.705 50.18ZM111.705 43.76C111.215 43.76 110.78 43.91 110.4 44.21C110.02 44.5 109.775 44.91 109.665 45.44H113.625C113.585 44.94 113.39 44.535 113.04 44.225C112.69 43.915 112.245 43.76 111.705 43.76ZM118.27 51.875L119.71 47.675H121.795L119.83 51.875H118.27ZM138.658 50.18C137.678 50.18 136.898 49.95 136.318 49.49C135.738 49.03 135.408 48.42 135.328 47.66H136.963C137.023 48.01 137.198 48.295 137.488 48.515C137.788 48.735 138.183 48.845 138.673 48.845C139.143 48.845 139.503 48.75 139.753 48.56C140.013 48.36 140.143 48.13 140.143 47.87C140.143 47.49 139.988 47.23 139.678 47.09C139.378 46.95 138.933 46.845 138.343 46.775C137.833 46.715 137.368 46.6 136.948 46.43C136.538 46.25 136.213 46.01 135.973 45.71C135.733 45.4 135.613 45.015 135.613 44.555C135.613 43.905 135.868 43.38 136.378 42.98C136.888 42.58 137.598 42.38 138.508 42.38C139.418 42.38 140.123 42.585 140.623 42.995C141.123 43.405 141.413 43.965 141.493 44.675H139.963C139.923 44.375 139.768 44.14 139.498 43.97C139.228 43.79 138.893 43.7 138.493 43.7C138.083 43.7 137.758 43.78 137.518 43.94C137.278 44.09 137.158 44.29 137.158 44.54C137.158 45.08 137.738 45.41 138.898 45.53C139.448 45.59 139.938 45.695 140.368 45.845C140.798 45.985 141.138 46.21 141.388 46.52C141.638 46.82 141.763 47.245 141.763 47.795C141.773 48.245 141.643 48.65 141.373 49.01C141.113 49.37 140.748 49.655 140.278 49.865C139.818 50.075 139.278 50.18 138.658 50.18ZM147.442 41.42C147.092 41.42 146.797 41.31 146.557 41.09C146.327 40.86 146.212 40.58 146.212 40.25C146.212 39.92 146.327 39.645 146.557 39.425C146.797 39.205 147.092 39.095 147.442 39.095C147.802 39.095 148.097 39.205 148.327 39.425C148.567 39.645 148.687 39.92 148.687 40.25C148.687 40.58 148.567 40.86 148.327 41.09C148.097 41.31 147.802 41.42 147.442 41.42ZM144.457 50V48.62H146.797V44.435C146.797 44.105 146.637 43.94 146.317 43.94H144.667V42.56H146.602C147.222 42.56 147.672 42.705 147.952 42.995C148.242 43.275 148.387 43.725 148.387 44.345V48.62H150.727V50H144.457ZM152.461 50V42.56H153.781L153.916 43.43H153.991C154.121 43.12 154.321 42.87 154.591 42.68C154.861 42.48 155.181 42.38 155.551 42.38C155.911 42.38 156.226 42.47 156.496 42.65C156.766 42.83 156.966 43.09 157.096 43.43H157.156C157.286 43.13 157.491 42.88 157.771 42.68C158.051 42.48 158.396 42.38 158.806 42.38C159.356 42.38 159.771 42.56 160.051 42.92C160.341 43.28 160.486 43.785 160.486 44.435V50H158.956V44.75C158.956 44.45 158.891 44.215 158.761 44.045C158.641 43.865 158.446 43.775 158.176 43.775C157.906 43.775 157.681 43.88 157.501 44.09C157.331 44.3 157.246 44.595 157.246 44.975V50H155.701V44.75C155.701 44.45 155.641 44.215 155.521 44.045C155.401 43.865 155.206 43.775 154.936 43.775C154.666 43.775 154.441 43.88 154.261 44.09C154.081 44.3 153.991 44.595 153.991 44.975V50H152.461ZM162.115 53.3V42.56H163.495L163.615 43.7H163.705C163.905 43.33 164.205 43.02 164.605 42.77C165.015 42.51 165.5 42.38 166.06 42.38C166.64 42.38 167.17 42.53 167.65 42.83C168.13 43.12 168.51 43.555 168.79 44.135C169.08 44.705 169.225 45.42 169.225 46.28C169.225 47.13 169.075 47.845 168.775 48.425C168.485 49.005 168.09 49.445 167.59 49.745C167.09 50.035 166.53 50.18 165.91 50.18C165.36 50.18 164.9 50.07 164.53 49.85C164.16 49.63 163.885 49.38 163.705 49.1V53.3H162.115ZM165.64 48.665C166.2 48.665 166.665 48.465 167.035 48.065C167.415 47.665 167.605 47.065 167.605 46.265C167.605 45.465 167.415 44.87 167.035 44.48C166.665 44.09 166.2 43.895 165.64 43.895C165.07 43.895 164.595 44.095 164.215 44.495C163.845 44.885 163.66 45.48 163.66 46.28C163.66 47.07 163.845 47.665 164.215 48.065C164.595 48.465 165.07 48.665 165.64 48.665ZM171.094 50V48.62H173.584V41.075C173.584 40.745 173.424 40.58 173.104 40.58H171.304V39.2H173.389C173.969 39.2 174.409 39.355 174.709 39.665C175.019 39.965 175.174 40.405 175.174 40.985V48.62H177.679V50H171.094ZM183.659 50.18C182.939 50.18 182.304 50.02 181.754 49.7C181.204 49.37 180.774 48.915 180.464 48.335C180.154 47.755 179.999 47.08 179.999 46.31C179.999 45.53 180.149 44.845 180.449 44.255C180.759 43.665 181.189 43.205 181.739 42.875C182.299 42.545 182.944 42.38 183.674 42.38C184.394 42.38 185.014 42.545 185.534 42.875C186.054 43.195 186.454 43.625 186.734 44.165C187.024 44.705 187.169 45.3 187.169 45.95C187.169 46.05 187.169 46.16 187.169 46.28C187.169 46.39 187.164 46.515 187.154 46.655H181.559C181.609 47.345 181.834 47.87 182.234 48.23C182.634 48.58 183.104 48.755 183.644 48.755C184.114 48.755 184.484 48.66 184.754 48.47C185.034 48.27 185.239 48 185.369 47.66H186.974C186.794 48.37 186.419 48.97 185.849 49.46C185.279 49.94 184.549 50.18 183.659 50.18ZM183.659 43.76C183.169 43.76 182.734 43.91 182.354 44.21C181.974 44.5 181.729 44.91 181.619 45.44H185.579C185.539 44.94 185.344 44.535 184.994 44.225C184.644 43.915 184.199 43.76 183.659 43.76ZM188.438 50V42.56H189.758L189.893 43.43H189.968C190.098 43.12 190.298 42.87 190.568 42.68C190.838 42.48 191.158 42.38 191.528 42.38C191.888 42.38 192.203 42.47 192.473 42.65C192.743 42.83 192.943 43.09 193.073 43.43H193.133C193.263 43.13 193.468 42.88 193.748 42.68C194.028 42.48 194.373 42.38 194.783 42.38C195.333 42.38 195.748 42.56 196.028 42.92C196.318 43.28 196.463 43.785 196.463 44.435V50H194.933V44.75C194.933 44.45 194.868 44.215 194.738 44.045C194.618 43.865 194.423 43.775 194.153 43.775C193.883 43.775 193.658 43.88 193.478 44.09C193.308 44.3 193.223 44.595 193.223 44.975V50H191.678V44.75C191.678 44.45 191.618 44.215 191.498 44.045C191.378 43.865 191.183 43.775 190.913 43.775C190.643 43.775 190.418 43.88 190.238 44.09C190.058 44.3 189.968 44.595 189.968 44.975V50H188.438ZM201.647 50.18C200.927 50.18 200.292 50.02 199.742 49.7C199.192 49.37 198.762 48.915 198.452 48.335C198.142 47.755 197.987 47.08 197.987 46.31C197.987 45.53 198.137 44.845 198.437 44.255C198.747 43.665 199.177 43.205 199.727 42.875C200.287 42.545 200.932 42.38 201.662 42.38C202.382 42.38 203.002 42.545 203.522 42.875C204.042 43.195 204.442 43.625 204.722 44.165C205.012 44.705 205.157 45.3 205.157 45.95C205.157 46.05 205.157 46.16 205.157 46.28C205.157 46.39 205.152 46.515 205.142 46.655H199.547C199.597 47.345 199.822 47.87 200.222 48.23C200.622 48.58 201.092 48.755 201.632 48.755C202.102 48.755 202.472 48.66 202.742 48.47C203.022 48.27 203.227 48 203.357 47.66H204.962C204.782 48.37 204.407 48.97 203.837 49.46C203.267 49.94 202.537 50.18 201.647 50.18ZM201.647 43.76C201.157 43.76 200.722 43.91 200.342 44.21C199.962 44.5 199.717 44.91 199.607 45.44H203.567C203.527 44.94 203.332 44.535 202.982 44.225C202.632 43.915 202.187 43.76 201.647 43.76ZM207.221 50V42.56H208.601L208.736 43.67H208.811C209.011 43.31 209.321 43.005 209.741 42.755C210.161 42.505 210.646 42.38 211.196 42.38C212.106 42.38 212.791 42.655 213.251 43.205C213.711 43.755 213.941 44.565 213.941 45.635V50H212.351V45.83C212.351 45.21 212.221 44.73 211.961 44.39C211.701 44.05 211.291 43.88 210.731 43.88C210.181 43.88 209.721 44.065 209.351 44.435C208.991 44.805 208.811 45.34 208.811 46.04V50H207.221ZM220.355 50C219.625 50 219.045 49.825 218.615 49.475C218.185 49.115 217.97 48.48 217.97 47.57V43.91H216.095V42.56H217.205C217.715 42.56 218.015 42.31 218.105 41.81L218.33 40.61H219.56V42.56H222.5V43.91H219.56V47.54C219.56 47.93 219.645 48.205 219.815 48.365C219.995 48.515 220.3 48.59 220.73 48.59H222.47V50H220.355Z" fill="white"/>
<mask id="path-3-inside-1_1149_131" fill="white">
<path d="M0.179932 35H224.18V59H8.17993C3.76165 59 0.179932 55.4183 0.179932 51V35Z"/>
</mask>
<path d="M0.179932 35H224.18H0.179932ZM224.18 60H8.17993C3.20937 60 -0.820068 55.9706 -0.820068 51H1.17993C1.17993 54.866 4.31394 58 8.17993 58H224.18V60ZM8.17993 60C3.20937 60 -0.820068 55.9706 -0.820068 51V35H1.17993V51C1.17993 54.866 4.31394 58 8.17993 58V60ZM224.18 35V59V35Z" fill="white" mask="url(#path-3-inside-1_1149_131)"/>
</svg>
